PathFileType	4	(X/Y/Z)	/Users/itak/Documents/Research/Walk-IL/dataset/trc/00173_00008.trc
DataRate	CameraRate	NumFrames	NumMarkers	Units	OrigDataRate	OrigDataStartFrame	OrigNumFrames
100.000000	100.000000	4	53	mm	100.000000	77	617
Frame#	Time	RPSI			LPSI			L3			STRN			T10			C7			CLAV			RBAK			LBAK			LSHO			LUPA			LAEL			LAOL			LWTS			LWPS			LFRA			LIFD			LHPS			LHTS			RSHO			RUPA			RAEL			RAOL			RWTS			RWPS			RFRA			RIFD			RHTS			RHPS			RBHD			LFHD			RFHD			LBHD			LHIP			RHIP			RASI			LASI			LKNE			LTHI			LANK			LTIP			LTOE			LMT1			LMT5			LHEE			RKNE			RTHI			RANK			RTIP			RTOE			RMT1			RMT5			RHEE			
		X1	Y1	Z1	X2	Y2	Z2	X3	Y3	Z3	X4	Y4	Z4	X5	Y5	Z5	X6	Y6	Z6	X7	Y7	Z7	X8	Y8	Z8	X9	Y9	Z9	X10	Y10	Z10	X11	Y11	Z11	X12	Y12	Z12	X13	Y13	Z13	X14	Y14	Z14	X15	Y15	Z15	X16	Y16	Z16	X17	Y17	Z17	X18	Y18	Z18	X19	Y19	Z19	X20	Y20	Z20	X21	Y21	Z21	X22	Y22	Z22	X23	Y23	Z23	X24	Y24	Z24	X25	Y25	Z25	X26	Y26	Z26	X27	Y27	Z27	X28	Y28	Z28	X29	Y29	Z29	X30	Y30	Z30	X31	Y31	Z31	X32	Y32	Z32	X33	Y33	Z33	X34	Y34	Z34	X35	Y35	Z35	X36	Y36	Z36	X37	Y37	Z37	X38	Y38	Z38	X39	Y39	Z39	X40	Y40	Z40	X41	Y41	Z41	X42	Y42	Z42	X43	Y43	Z43	X44	Y44	Z44	X45	Y45	Z45	X46	Y46	Z46	X47	Y47	Z47	X48	Y48	Z48	X49	Y49	Z49	X50	Y50	Z50	X51	Y51	Z51	X52	Y52	Z52	X53	Y53	Z53	

78	0.77	823.537109375	1054.437133789062	252.4157409667969	825.9904174804688	1051.150268554688	127.5984191894531	824.9232788085938	1092.62744140625	191.9128112792969	1087.010375976562	1302.33154296875	177.3478546142578	794.745361328125	1246.463623046875	182.8175811767578	853.7716674804688	1517.29833984375	164.6352691650391	1056.869506835938	1415.256713867188	167.320068359375	793.1182861328125	1342.71240234375	278.5225830078125	846.1392211914062	1491.169189453125	65.03157806396484	922.5924682617188	1478.087036132812	-14.55651664733887	892.264892578125	1343.932495117188	-85.18517303466797	913.745361328125	1124.403564453125	-96.32591247558594	859.158935546875	1112.15234375	-27.20984077453613	1027.477294921875	898.6278076171875	-44.86145401000977	950.3765258789062	872.0988159179688	-91.38945770263672	931.710693359375	1013.668701171875	-104.0694580078125	1043.17822265625	716.0336303710938	-9.129621505737305	972.7811279296875	802.982421875	-81.54669952392578	1042.137939453125	820.04345703125	-60.60749053955078	922.3873901367188	1499.349365234375	346.0456237792969	904.606689453125	1433.450927734375	417.0599060058594	901.2342529296875	1144.933349609375	474.9348754882812	892.647216796875	1135.046508789062	379.1980590820312	1044.993408203125	921.9402465820312	447.4145202636719	976.2755737304688	903.7786865234375	500.5774536132812	930.1930541992188	1073.601318359375	492.0322265625	1065.610107421875	735.4715576171875	425.1618041992188	1075.273559570312	829.7743530273438	454.8796691894531	1006.79736328125	821.4884033203125	495.713623046875	905.1399536132812	1674.880493164062	244.5323638916016	1033.548095703125	1736.970581054688	80.45159912109375	1058.928955078125	1747.09619140625	206.9169616699219	867.8358154296875	1670.97509765625	111.6927947998047	939.4791870117188	987.984619140625	12.31057643890381	982	1014.906005859375	374.0916137695312	1061.259887695312	1041.957275390625	316.6791687011719	1051.539184570312	1029.129516601562	59.81631469726562	944.2993774414062	492.8248901367188	43.0142936706543	951.1962890625	635.7997436523438	13.70189762115479	834.3245239257812	39.45129013061523	32.59682083129883	893.8548583984375	271.947509765625	25.87442970275879	1052.9169921875	37.82913970947266	53.33914947509766	1005.077209472656	38.83792114257812	101.9427719116211	941.1456909179688	29.34101867675781	-10.23631286621094	782.6705932617188	40.80442428588867	102.4211883544922	975.6435546875	515.026611328125	355.756591796875	1031.968994140625	784.2335205078125	381.4359436035156	855.8438720703125	37.99900054931641	359.1523742675781	976.7409057617188	394.7136535644531	338.6215209960938	1081.366821289062	39.6151008605957	330.5803527832031	1025.435546875	36.04454040527344	284.3283996582031	968.3779296875	35.40784454345703	397.8794250488281	806.105224609375	37.11309051513672	290.0749206542969	
79	0.78	823.1416625976562	1054.4560546875	252.5611724853516	825.6642456054688	1051.156494140625	127.7458801269531	824.5983276367188	1092.611572265625	192.0440216064453	1086.60205078125	1302.350708007812	177.3257293701172	794.32373046875	1246.436889648438	183.0733489990234	853.324951171875	1517.28662109375	164.9125518798828	1056.429077148438	1415.262451171875	167.3410949707031	792.834228515625	1342.682983398438	278.8078918457031	845.5466918945312	1491.1337890625	65.36019134521484	921.94677734375	1478.102172851562	-14.37215042114258	891.4625854492188	1344.006591796875	-85.00687408447266	912.6996459960938	1124.435302734375	-96.14800262451172	858.1640014648438	1112.306274414062	-27.01810836791992	1025.954345703125	898.3351440429688	-44.72438430786133	948.843017578125	872.0643920898438	-91.29692077636719	930.4901733398438	1013.692932128906	-103.9557800292969	1041.35107421875	715.7092895507812	-9.180848121643066	971.0849609375	802.8670654296875	-81.46695709228516	1040.49169921875	819.7966918945312	-60.53181838989258	922.1397705078125	1499.297973632812	346.2484130859375	904.4580688476562	1433.371704101562	417.2738342285156	900.9776000976562	1144.84814453125	475.0001220703125	892.2216796875	1135.037475585938	379.2127685546875	1044.507080078125	921.7280883789062	447.2070922851562	975.847900390625	903.6201782226562	500.4637451171875	929.99609375	1073.498657226562	492.032470703125	1064.84228515625	735.229736328125	424.8422241210938	1074.658325195312	829.5057983398438	454.5787048339844	1006.291625976562	821.3040771484375	495.5288696289062	905.22119140625	1674.987060546875	245.0433959960938	1033.8662109375	1736.938110351562	81.08203887939453	1059.355224609375	1746.475952148438	207.5783386230469	867.8607788085938	1671.713989257812	112.2023849487305	938.97705078125	987.9235229492188	12.42659759521484	981.7261352539062	1014.880004882812	374.0569763183594	1061.000610351562	1041.964721679688	316.6803588867188	1051.121459960938	1029.15869140625	59.80929565429688	943.9132690429688	492.92822265625	42.95382690429688	950.775634765625	635.8538818359375	13.71312046051025	834.297607421875	39.41029357910156	32.58499526977539	893.5924072265625	271.9657897949219	25.8611011505127	1052.8916015625	37.83477783203125	53.33641815185547	1005.054382324219	38.85512924194336	101.9355697631836	941.1341552734375	29.32273483276367	-10.24791145324707	782.6248779296875	40.73984909057617	102.4020767211914	975.6561279296875	515.152587890625	355.673828125	1031.7548828125	784.1847534179688	381.607666015625	855.8406372070312	38.00582885742188	359.1505432128906	976.8839721679688	394.6496276855469	338.6392822265625	1081.365234375	39.63501739501953	330.5753173828125	1025.429931640625	36.03195953369141	284.3058471679688	968.382080078125	35.43867874145508	397.8629760742188	806.1062622070312	37.08797836303711	290.0660400390625	
80	0.79	822.779296875	1054.466064453125	252.6660919189453	825.322021484375	1051.177001953125	127.8790588378906	824.3135986328125	1092.589721679688	192.1411285400391	1086.202270507812	1302.381225585938	177.3163604736328	793.9190063476562	1246.4111328125	183.3059539794922	852.8759155273438	1517.283325195312	165.1757507324219	1055.993041992188	1415.277099609375	167.3705596923828	792.5408935546875	1342.651489257812	279.09033203125	844.953369140625	1491.078491210938	65.67842864990234	921.291259765625	1478.09912109375	-14.18867206573486	890.6646728515625	1344.08349609375	-84.83094024658203	911.66064453125	1124.475219726562	-95.99933624267578	857.181884765625	1112.463745117188	-26.86373710632324	1024.48095703125	898.0759887695312	-44.65922927856445	947.3471069335938	872.0433349609375	-91.26478576660156	929.2858276367188	1013.72802734375	-103.8871154785156	1039.582641601562	715.409423828125	-9.290706634521484	969.4364013671875	802.777587890625	-81.45037841796875	1038.888061523438	819.5734252929688	-60.52143096923828	921.8768310546875	1499.255126953125	346.4415588378906	904.2888793945312	1433.3017578125	417.4794921875	900.7179565429688	1144.7685546875	475.0432739257812	891.81884765625	1135.043823242188	379.1822204589844	1044.027587890625	921.5315551757812	446.9783935546875	975.4196166992188	903.464599609375	500.3190307617188	929.7661743164062	1073.39990234375	492.0126342773438	1064.104370117188	735.005859375	424.4899291992188	1074.0546875	829.2539672851562	454.2538146972656	1005.784851074219	821.12841796875	495.3114013671875	905.2960205078125	1675.124145507812	245.5234222412109	1034.24072265625	1736.880737304688	81.69869995117188	1059.813842773438	1745.830932617188	208.2239074707031	867.927490234375	1672.490600585938	112.6582565307617	938.427490234375	987.8767700195312	12.52457332611084	981.447265625	1014.852966308594	374.0298156738281	1060.7373046875	1041.972045898438	316.6943969726562	1050.734130859375	1029.189697265625	59.82437515258789	943.5253295898438	493.0588684082031	42.86709976196289	950.3552856445312	635.9110107421875	13.73626613616943	834.2698974609375	39.37693405151367	32.57613372802734	893.3307495117188	271.9874572753906	25.85081672668457	1052.868774414062	37.83908843994141	53.332763671875	1005.034484863281	38.87245941162109	101.9282379150391	941.123291015625	29.30588722229004	-10.2581958770752	782.5802612304688	40.67105865478516	102.3893890380859	975.6863403320312	515.2610473632812	355.5588073730469	1031.557983398438	784.1395874023438	381.7483520507812	855.837890625	38.01625823974609	359.1478271484375	977.0339965820312	394.5750122070312	338.6547546386719	1081.361450195312	39.65010070800781	330.572998046875	1025.423950195312	36.01787567138672	284.2808837890625	968.3884887695312	35.47217178344727	397.8441162109375	806.1060791015625	37.05969619750977	290.0524597167969	
81	0.8	822.4523315429688	1054.463500976562	252.734619140625	824.9586791992188	1051.203125	127.9988174438477	824.0602416992188	1092.560913085938	192.2108154296875	1085.813110351562	1302.420654296875	177.3226165771484	793.5299682617188	1246.386108398438	183.5221710205078	852.4266357421875	1517.287719726562	165.4257049560547	1055.561279296875	1415.299438476562	167.4095916748047	792.2321166992188	1342.611938476562	279.3651428222656	844.3668212890625	1491.01220703125	65.97804260253906	920.62744140625	1478.08349609375	-13.99982357025146	889.8718872070312	1344.160034179688	-84.65386199951172	910.631591796875	1124.52392578125	-95.87949371337891	856.2179565429688	1112.618041992188	-26.73801422119141	1023.060546875	897.85693359375	-44.66623687744141	945.8948974609375	872.0397338867188	-91.29535675048828	928.0977172851562	1013.773315429688	-103.8563461303711	1037.871459960938	715.1198120117188	-9.457367897033691	967.839111328125	802.7149658203125	-81.49887847900391	1037.329956054688	819.37548828125	-60.57727813720703	921.5996704101562	1499.216430664062	346.627685546875	904.0939331054688	1433.237670898438	417.6747741699219	900.452880859375	1144.68994140625	475.0669555664062	891.4442138671875	1135.057373046875	379.1184387207031	1043.559692382812	921.3494873046875	446.73193359375	974.9906616210938	903.3095703125	500.146240234375	929.4943237304688	1073.300903320312	491.9751281738281	1063.413696289062	734.8031616210938	424.109130859375	1073.467895507812	829.0194091796875	453.9080505371094	1005.278564453125	820.9574584960938	495.0628356933594	905.3699951171875	1675.291748046875	245.9750366210938	1034.67626953125	1736.789428710938	82.29880523681641	1060.308349609375	1745.156860351562	208.8515167236328	868.0280151367188	1673.297729492188	113.0679931640625	937.7742919921875	987.8596801757812	12.58294868469238	981.168212890625	1014.824890136719	374.0102844238281	1060.475341796875	1041.979248046875	316.7186279296875	1050.378173828125	1029.222778320312	59.86064529418945	943.1396484375	493.2123718261719	42.76119995117188	949.9368896484375	635.96728515625	13.77083396911621	834.2421875	39.34914016723633	32.56925201416016	893.0758056640625	272.0130615234375	25.8418083190918	1052.84814453125	37.84108734130859	53.32868576049805	1005.016479492188	38.88870620727539	101.9203948974609	941.1126098632812	29.28943824768066	-10.26861190795898	782.5384521484375	40.60080718994141	102.3819046020508	975.7207641601562	515.3492431640625	355.4177551269531	1031.354248046875	784.0546875	381.8982238769531	855.8348388671875	38.02969360351562	359.1436157226562	977.17724609375	394.493408203125	338.6637878417969	1081.355834960938	39.66167831420898	330.5728454589844	1025.416870117188	36.00210952758789	284.2531127929688	968.3966674804688	35.50908279418945	397.822265625	806.104248046875	37.02783584594727	290.03466796875	
